<?xml version="1.0" encoding="UTF-8"?>
<svg id="Layer_1" data-name="Layer 1" xmlns="http://www.w3.org/2000/svg" xmlns:xlink="http://www.w3.org/1999/xlink" viewBox="0 0 151.03 144.36">
  <defs>
    <style>
      .cls-1 {
        fill: url(#Degradado_sin_nombre_6-2);
      }

      .cls-2 {
        fill: url(#Degradado_sin_nombre_6);
      }

      .cls-3 {
        fill: url(#Degradado_sin_nombre_6-7);
      }

      .cls-4 {
        fill: url(#Degradado_sin_nombre_6-6);
      }

      .cls-5 {
        fill: url(#Degradado_sin_nombre_6-3);
      }

      .cls-6 {
        fill: url(#Degradado_sin_nombre_6-4);
      }

      .cls-7 {
        fill: url(#Degradado_sin_nombre_6-5);
      }
    </style>
    <linearGradient id="Degradado_sin_nombre_6" data-name="Degradado sin nombre 6" x1="74.59" y1="22.08" x2="75.64" y2="104.01" gradientUnits="userSpaceOnUse">
      <stop offset="0" stop-color="#ebd09a"/>
      <stop offset=".17" stop-color="#dfb967"/>
      <stop offset=".42" stop-color="#dfb967"/>
      <stop offset=".98" stop-color="#965d25"/>
    </linearGradient>
    <linearGradient id="Degradado_sin_nombre_6-2" data-name="Degradado sin nombre 6" x1="57.07" y1="22.3" x2="58.12" y2="104.23" xlink:href="#Degradado_sin_nombre_6"/>
    <linearGradient id="Degradado_sin_nombre_6-3" data-name="Degradado sin nombre 6" x1="92.6" y1="21.85" x2="93.64" y2="103.78" xlink:href="#Degradado_sin_nombre_6"/>
    <linearGradient id="Degradado_sin_nombre_6-4" data-name="Degradado sin nombre 6" x1="74.86" y1="10.02" x2="76.6" y2="96.83" xlink:href="#Degradado_sin_nombre_6"/>
    <linearGradient id="Degradado_sin_nombre_6-5" data-name="Degradado sin nombre 6" x1="75.67" y1="22.06" x2="76.72" y2="103.99" xlink:href="#Degradado_sin_nombre_6"/>
    <linearGradient id="Degradado_sin_nombre_6-6" data-name="Degradado sin nombre 6" x1="75.02" y1="22.07" x2="76.07" y2="104" xlink:href="#Degradado_sin_nombre_6"/>
    <linearGradient id="Degradado_sin_nombre_6-7" data-name="Degradado sin nombre 6" x1="75.37" y1="-11.29" x2="75.71" y2="164.07" xlink:href="#Degradado_sin_nombre_6"/>
  </defs>
  <g>
    <path class="cls-2" d="M109.21,81.6c-10.93,3.33-22.26,5.01-33.69,5.01s-22.98-1.72-34-5.11v2.11c11.03,3.33,22.47,5.02,34,5.02s22.75-1.66,33.69-4.93v-2.11Z"/>
    <path class="cls-1" d="M65.79,69.78c0-1.06,.08-2.08,.22-3.07-8.2-.35-16.35-1.16-24.29-2.44v14.44c10.5,3.25,21.35,4.94,32.21,5.09-4.68-1.13-8.14-6.89-8.14-14.03Zm-17.53,6.75c-1.28,0-2.32-1.73-2.32-3.87s1.04-3.87,2.32-3.87,2.32,1.73,2.32,3.87-1.04,3.87-2.32,3.87Zm11.39,2.68c-1.54,0-2.78-2.08-2.78-4.64s1.25-4.64,2.78-4.64,2.78,2.08,2.78,4.64-1.25,4.64-2.78,4.64Z"/>
    <path class="cls-5" d="M85.25,66.71c.15,.99,.22,2.02,.22,3.08,0,7.14-3.46,12.9-8.14,14.03,10.75-.17,21.48-1.85,31.86-5.05v-14.46c-7.83,1.25-15.86,2.05-23.94,2.41Zm6.76,12.5c-1.54,0-2.78-2.08-2.78-4.64s1.25-4.64,2.78-4.64,2.78,2.08,2.78,4.64-1.25,4.64-2.78,4.64Zm11.39-2.68c-1.28,0-2.32-1.73-2.32-3.87s1.04-3.87,2.32-3.87,2.32,1.73,2.32,3.87-1.04,3.87-2.32,3.87Z"/>
    <path class="cls-6" d="M123.46,21.96c-.45,1.66-.91,3.37-1.37,5.12h4.89V62.99c0,16.64-10.09,31.84-26.06,39.25l-25.12,10.57-.29,.12-.29-.12-25.12-10.57c-15.96-7.41-26.06-22.61-26.06-39.25V27.08h4.89c-.46-1.75-.92-3.47-1.37-5.12h-9.01V62.99c0,18.71,11.15,35.5,29.1,43.84l.09,.04,.1,.04,25.12,10.57,.29,.12,2.25,.95,2.25-.95,.29-.12,25.12-10.57,.1-.04,.09-.04c17.95-8.33,29.1-25.13,29.1-43.84V21.96h-9.01Z"/>
    <path class="cls-7" d="M122.23,10.71c-1.49,2.48-3.7,5.73-6.88,9.24-2.52,2.78-4.93,4.91-6.79,6.38,.98,3.22,2,7.6,2.19,12.83,.06,1.71-.28,4.83-.68,7.81-.56,4.09-4.08,7.83-7.67,8.12h0c-3.59,.28-5.97-3.31-5.05-7.82,.66-3.23,1.46-6.62,2.14-8.45,2.1-5.61,4.69-9.93,6.75-12.79-1.26-1.91-2.81-4.72-4.11-8.69-1.65-5.01-2.33-10.02-2.61-13.91-.02-.31-.04-.61-.06-.91-.08,.27-.17,.55-.26,.84-1.14,3.6-2.92,8.2-5.68,12.87-2.19,3.7-4.37,6.38-6.08,8.21,1.38,3.48,2.96,8.35,3.79,14.21,.27,1.91,.3,5.41,.25,8.7-.07,4.55-3.29,8.45-6.95,8.55-3.66,.09-6.48-3.76-6.05-8.45,.31-3.38,.73-6.96,1.21-8.92,1.49-5.99,3.6-10.84,5.35-14.2-1.51-1.97-3.39-4.89-5.16-8.98-2.23-5.16-3.48-10.35-4.2-14.42-.06-.32-.11-.64-.16-.95-.05,.31-.11,.62-.16,.95-.72,4.07-1.97,9.26-4.2,14.42-1.77,4.09-3.66,7-5.16,8.98,1.75,3.36,3.87,8.21,5.35,14.2,.48,1.95,.9,5.54,1.21,8.92,.43,4.69-2.39,8.54-6.05,8.45t0,0c-3.66-.1-6.87-4-6.95-8.55-.05-3.3-.02-6.79,.25-8.7,.83-5.86,2.42-10.73,3.79-14.21-1.71-1.83-3.9-4.51-6.08-8.21-2.76-4.67-4.53-9.26-5.68-12.87-.09-.29-.18-.57-.26-.84-.02,.29-.04,.6-.06,.91-.28,3.89-.96,8.9-2.61,13.91-1.31,3.96-2.85,6.78-4.11,8.69,2.07,2.86,4.65,7.18,6.75,12.79,.68,1.82,1.47,5.21,2.14,8.45,.92,4.5-1.46,8.09-5.05,7.82h0c-3.59-.29-7.12-4.03-7.67-8.12-.4-2.98-.75-6.1-.68-7.81,.19-5.23,1.21-9.62,2.19-12.83-1.86-1.47-4.28-3.6-6.79-6.38-3.17-3.51-5.39-6.76-6.88-9.24-.12-.2-.23-.39-.34-.58,0,0,0,.02,0,.03,4.3,14.48,8.69,32.11,13.14,51.65,8.16,1.22,16.54,1.98,24.97,2.3,1.49-5.09,4.94-8.57,9.06-8.57s7.57,3.48,9.06,8.56c8.36-.32,16.66-1.08,24.75-2.29,4.45-19.55,8.84-37.19,13.14-51.68h0c-.11,.18-.22,.38-.34,.57Z"/>
    <path class="cls-4" d="M75.63,59.24c-3.66,0-6.62,4.72-6.62,10.54s2.96,10.54,6.62,10.54,6.62-4.72,6.62-10.54-2.96-10.54-6.62-10.54Zm0,16.52l-3.76-5.98,3.76-5.98,3.76,5.98-3.76,5.98Z"/>
  </g>
  <path class="cls-3" d="M149.48,70.43c.5-.69,.95-1.52,1.19-2.43,.24-.91,.36-1.9,.37-2.88-1.13-.04-2.28,.67-3.2,2.05-.23,.35-.43,.72-.61,1.11-.15,.28-.27,.58-.39,.87,.14-1.5,.21-3,.23-4.51,.99-.13,1.99-.84,2.7-2.05,.84-1.4,1.21-3.23,1.16-5.06-1.1-.01-2.18,.67-3.02,2.07-.36,.61-.63,1.31-.84,2.05l-.02-4.5c.96-.14,1.89-.82,2.6-2.04,.81-1.4,1.17-3.23,1.12-5.06-1.06-.01-2.11,.67-2.91,2.07-.36,.62-.62,1.32-.82,2.07l-.02-4.53c.93-.13,1.83-.81,2.52-2.04,.78-1.4,1.13-3.23,1.08-5.06-1.02-.02-2.03,.67-2.81,2.07-.35,.62-.6,1.34-.8,2.1l-.02-4.55c.9-.13,1.77-.81,2.43-2.04,.75-1.4,1.08-3.23,1.04-5.06-.98-.02-1.96,.67-2.71,2.07-.34,.63-.59,1.36-.78,2.13l-.02-4.58c.87-.13,1.71-.81,2.35-2.05,.72-1.4,1.04-3.23,.99-5.06-.95-.02-1.88,.67-2.6,2.07-.33,.64-.58,1.38-.76,2.16l-.02-4.61c.84-.12,1.65-.8,2.27-2.05,.69-1.4,1-3.23,.95-5.06-.91-.01-1.81,.67-2.5,2.07-.32,.65-.56,1.4-.73,2.2v-2.83c.89-1.83,1.39-3.79,1.31-5.49-.09-1.79-.8-2.95-1.91-3.37-1.03,1.89-1.65,3.96-1.56,5.75,.07,1.35,.52,2.35,1.23,2.95v2.99c-.18-.8-.42-1.55-.75-2.2-.69-1.4-1.59-2.09-2.5-2.07-.05,1.83,.26,3.67,.95,5.06,.62,1.24,1.43,1.92,2.27,2.05l-.02,4.61c-.18-.78-.43-1.52-.76-2.16-.72-1.4-1.66-2.08-2.6-2.07-.05,1.83,.27,3.67,.99,5.06,.64,1.24,1.48,1.92,2.35,2.05l-.02,4.58c-.19-.77-.44-1.5-.78-2.13-.75-1.4-1.72-2.09-2.71-2.07-.05,1.83,.29,3.67,1.04,5.06,.66,1.24,1.54,1.91,2.43,2.04l-.02,4.55c-.19-.76-.45-1.48-.8-2.1-.78-1.4-1.79-2.09-2.81-2.07-.05,1.83,.3,3.67,1.08,5.06,.69,1.23,1.59,1.91,2.52,2.04l-.02,4.53c-.2-.75-.46-1.46-.82-2.07-.81-1.4-1.86-2.09-2.91-2.07-.05,1.83,.32,3.67,1.12,5.06,.71,1.23,1.64,1.91,2.6,2.04l-.02,4.5c-.21-.74-.48-1.44-.84-2.05-.84-1.4-1.92-2.09-3.02-2.07-.05,1.83,.33,3.67,1.16,5.06,.75,1.24,1.67,1.88,2.66,2.03-.03,1.48-.12,2.96-.26,4.43-.05-.31-.11-.62-.19-.91-.14-.4-.32-.78-.52-1.14-.81-1.41-1.91-2.08-3.05-2.09-.06,.84,0,1.69,.17,2.5,.17,.81,.35,1.58,.72,2.29,.62,1.21,1.52,2,2.5,2.29-.21,1.43-.47,2.85-.78,4.26-.09-.72-.23-1.41-.49-2.02-.63-1.5-1.65-2.3-2.82-2.45-.17,.83-.25,1.66-.19,2.49,.04,.82,.27,1.64,.51,2.37,.46,1.28,1.27,2.19,2.25,2.6-.39,1.41-.83,2.79-1.32,4.17,.02-.74-.04-1.45-.22-2.11-.2-.78-.6-1.42-1.06-1.89-.46-.47-1-.78-1.58-.94-.12,.4-.21,.81-.27,1.23-.09,.41-.15,.81-.18,1.22-.06,.82,.02,1.64,.24,2.42,.24,.79,.52,1.43,.93,1.96,.3,.39,.66,.7,1.06,.94-.56,1.34-1.16,2.66-1.81,3.95,.11-.72,.15-1.42,0-2.11-.33-1.65-1.22-2.71-2.37-3.18-.36,.76-.58,1.57-.71,2.39-.17,.8-.2,1.62-.08,2.42,.21,1.38,.84,2.49,1.72,3.16-.7,1.21-1.44,2.4-2.22,3.56,.16-.65,.18-1.34,.15-1.97-.12-1.68-.9-2.85-2.02-3.48-.46,.7-.81,1.46-1.03,2.26-.2,.81-.34,1.62-.32,2.42,.04,1.4,.54,2.59,1.36,3.38-.85,1.13-1.73,2.24-2.65,3.31,.23-.66,.38-1.33,.41-1.99,.04-.84-.09-1.57-.39-2.21-.3-.64-.74-1.16-1.27-1.55-.48,.69-.99,1.35-1.29,2.12-.32,.76-.52,1.57-.56,2.41-.13,1.39,.24,2.64,.99,3.56-.97,1.01-1.97,1.99-3,2.94,.3-.61,.52-1.24,.63-1.89,.21-1.72-.33-3.12-1.32-4.05-.61,.57-1.06,1.3-1.5,1.99-.42,.71-.71,1.49-.85,2.32-.14,.83-.1,1.63,.07,2.34,.11,.5,.33,.95,.6,1.37-1.08,.9-2.17,1.77-3.3,2.6,.13-.19,.24-.39,.34-.61,.19-.4,.33-.82,.43-1.24,.41-1.69,.02-3.15-.88-4.22-.67,.5-1.26,1.11-1.72,1.8-.45,.71-.86,1.42-1.09,2.23-.4,1.39-.28,2.75,.27,3.87-1.17,.77-2.37,1.49-3.59,2.18,.42-.55,.76-1.14,.99-1.77,.3-.82,.4-1.59,.3-2.34-.1-.75-.36-1.44-.76-2.03-.69,.47-1.38,.94-1.92,1.58-.55,.62-.99,1.35-1.29,2.17-.15,.41-.27,.78-.34,1.18-.07,.39-.1,.78-.09,1.16,.02,.54,.12,1.07,.3,1.57-.45,.23-.89,.46-1.34,.68-.63,.31-1.46,.68-2.41,1.09,.17-.17,.33-.34,.47-.52,.31-.35,.43-.68,.65-1.1,.73-1.63,.64-3.22-.04-4.52-.38,.18-.74,.39-1.09,.63-.17,.12-.34,.25-.5,.38-.14,.13-.37,.31-.38,.38,0,.08-.21,.24-.36,.39-.15,.15-.31,.32-.46,.49-.29,.34-.55,.71-.77,1.1-.75,1.36-.9,2.78-.55,4.04-1.32,.54-2.7,1.1-4.02,1.63,.52-.51,.98-1.07,1.32-1.71,.85-1.6,.92-3.25,.33-4.64-1.72,.65-3.22,1.85-4.07,3.45-.73,1.37-.86,2.81-.5,4.08-1.01,.41-1.9,.78-2.59,1.08-.44,.18-.88,.37-1.32,.55,.48-.5,.89-1.07,1.21-1.69,.83-1.63,.88-3.31,.27-4.74-1.72,.66-3.2,1.88-4.04,3.51-.72,1.4-.83,2.87-.45,4.18-1.3,.54-2.6,1.09-3.9,1.64,.47-.51,.88-1.09,1.19-1.72,.82-1.66,.84-3.38,.21-4.83-1.71,.67-3.19,1.9-4.01,3.57-.7,1.42-.79,2.92-.4,4.25-2.79,1.18-5.58,2.37-8.37,3.57-2.78-1.21-5.57-2.39-8.37-3.57,.4-1.33,.3-2.83-.4-4.25-.81-1.66-2.29-2.9-4.01-3.57-.63,1.45-.61,3.17,.21,4.83,.31,.63,.72,1.21,1.19,1.72-1.3-.55-2.6-1.09-3.9-1.64,.38-1.31,.27-2.78-.45-4.18-.84-1.63-2.32-2.84-4.04-3.51-.61,1.42-.56,3.11,.27,4.74,.32,.62,.73,1.19,1.21,1.69-.44-.18-.88-.37-1.32-.55-.69-.3-1.58-.67-2.59-1.08,.36-1.28,.23-2.71-.5-4.08-.85-1.6-2.35-2.79-4.07-3.45-.59,1.39-.52,3.04,.33,4.64,.34,.64,.8,1.2,1.32,1.71-1.32-.53-2.7-1.09-4.02-1.63,.35-1.26,.21-2.68-.55-4.04-.22-.39-.48-.76-.77-1.1-.14-.17-.3-.34-.46-.49-.15-.15-.35-.32-.36-.39,0-.07-.23-.25-.38-.38-.16-.14-.33-.26-.5-.38-.34-.24-.71-.45-1.09-.63-.68,1.3-.78,2.9-.04,4.52,.21,.43,.34,.76,.65,1.1,.15,.18,.31,.35,.47,.52-.95-.41-1.78-.78-2.41-1.09-.45-.22-.89-.45-1.34-.68,.18-.5,.29-1.02,.3-1.57,.01-.38-.02-.77-.09-1.16-.07-.39-.2-.77-.34-1.18-.3-.81-.74-1.54-1.29-2.17-.54-.64-1.23-1.11-1.92-1.58-.4,.6-.66,1.28-.76,2.03-.09,.75,0,1.52,.3,2.34,.23,.63,.57,1.22,.99,1.77-1.22-.69-2.42-1.41-3.59-2.18,.55-1.11,.67-2.48,.27-3.87-.23-.81-.63-1.52-1.09-2.23-.47-.69-1.05-1.3-1.72-1.8-.9,1.07-1.29,2.53-.88,4.22,.1,.42,.25,.84,.44,1.24,.09,.22,.21,.42,.34,.61-1.13-.83-2.23-1.7-3.3-2.6,.26-.42,.48-.87,.6-1.37,.17-.71,.21-1.51,.07-2.34-.14-.83-.43-1.61-.85-2.32-.44-.69-.89-1.41-1.5-1.99-.99,.93-1.53,2.32-1.32,4.05,.11,.64,.33,1.28,.63,1.89-1.03-.95-2.04-1.92-3-2.94,.74-.91,1.11-2.16,.99-3.56-.04-.84-.23-1.65-.56-2.41-.31-.77-.81-1.44-1.29-2.12-.53,.39-.97,.91-1.27,1.55-.3,.64-.43,1.37-.39,2.21,.03,.66,.18,1.33,.41,1.99-.92-1.07-1.8-2.18-2.65-3.31,.82-.8,1.33-1.99,1.36-3.38,.01-.81-.12-1.61-.32-2.42-.22-.8-.57-1.56-1.03-2.26-1.12,.63-1.89,1.8-2.02,3.48-.04,.64,0,1.32,.15,1.97-.78-1.16-1.52-2.34-2.22-3.56,.88-.67,1.51-1.78,1.72-3.16,.12-.8,.09-1.62-.08-2.42-.13-.82-.36-1.63-.71-2.39-1.16,.47-2.05,1.53-2.37,3.18-.15,.69-.11,1.39,0,2.11-.65-1.29-1.26-2.61-1.81-3.95,.4-.23,.76-.55,1.06-.94,.41-.53,.69-1.17,.93-1.96,.22-.78,.29-1.6,.24-2.42-.03-.41-.09-.82-.18-1.22-.06-.41-.15-.82-.27-1.23-.58,.16-1.12,.47-1.58,.94-.46,.47-.86,1.11-1.06,1.89-.18,.66-.24,1.37-.22,2.11-.49-1.37-.93-2.76-1.32-4.17,.97-.41,1.78-1.32,2.25-2.6,.24-.73,.47-1.55,.51-2.37,.06-.82-.02-1.66-.19-2.49-1.17,.16-2.19,.95-2.82,2.45-.26,.61-.41,1.31-.49,2.02-.31-1.41-.57-2.83-.78-4.26,.98-.29,1.88-1.08,2.5-2.29,.37-.7,.55-1.47,.72-2.29,.17-.81,.23-1.66,.17-2.5-1.13,0-2.23,.67-3.05,2.09-.2,.35-.38,.73-.52,1.14-.09,.29-.14,.6-.19,.91-.14-1.47-.23-2.95-.26-4.43,.99-.15,1.91-.79,2.66-2.03,.84-1.4,1.21-3.23,1.16-5.06-1.1-.01-2.18,.67-3.02,2.07-.36,.61-.63,1.31-.84,2.05l-.02-4.5c.96-.14,1.89-.82,2.6-2.04,.81-1.4,1.17-3.23,1.12-5.06-1.06-.01-2.11,.67-2.91,2.07-.35,.62-.62,1.32-.82,2.07l-.02-4.53c.93-.13,1.83-.81,2.52-2.04,.78-1.4,1.13-3.23,1.08-5.06-1.02-.02-2.03,.67-2.81,2.07-.35,.62-.6,1.34-.8,2.1l-.02-4.55c.9-.13,1.77-.81,2.43-2.04,.75-1.4,1.08-3.23,1.04-5.06-.98-.02-1.96,.67-2.71,2.07-.34,.63-.59,1.36-.78,2.13l-.02-4.58c.87-.13,1.71-.81,2.35-2.05,.72-1.4,1.04-3.23,.99-5.06-.95-.02-1.88,.67-2.6,2.07-.33,.64-.58,1.38-.76,2.16l-.02-4.61c.84-.12,1.65-.8,2.27-2.05,.69-1.4,1-3.23,.95-5.06-.91-.01-1.81,.67-2.5,2.07-.32,.65-.56,1.4-.74,2.2v-2.99c.7-.6,1.15-1.6,1.21-2.95,.09-1.79-.53-3.86-1.56-5.75-1.1,.42-1.82,1.57-1.91,3.37-.08,1.7,.42,3.67,1.32,5.49v2.83c-.18-.8-.42-1.55-.75-2.2-.69-1.4-1.59-2.09-2.5-2.07-.05,1.83,.26,3.67,.95,5.06,.61,1.24,1.43,1.92,2.27,2.05l-.02,4.61c-.18-.78-.43-1.52-.76-2.16-.72-1.4-1.66-2.08-2.6-2.07-.05,1.83,.27,3.67,.99,5.06,.64,1.24,1.48,1.92,2.35,2.05l-.02,4.58c-.19-.77-.44-1.5-.78-2.13-.75-1.4-1.72-2.09-2.71-2.07-.05,1.83,.29,3.67,1.04,5.06,.66,1.24,1.54,1.91,2.43,2.04l-.02,4.55c-.19-.76-.45-1.48-.8-2.1-.78-1.4-1.79-2.09-2.81-2.07-.05,1.83,.3,3.67,1.08,5.06,.69,1.23,1.59,1.91,2.52,2.04l-.02,4.53c-.2-.75-.46-1.46-.82-2.07-.81-1.4-1.86-2.09-2.91-2.07-.05,1.83,.32,3.67,1.12,5.06,.71,1.23,1.64,1.91,2.6,2.04l-.02,4.5c-.21-.74-.48-1.44-.84-2.05-.84-1.4-1.92-2.09-3.02-2.07-.05,1.83,.33,3.67,1.16,5.06,.71,1.21,1.72,1.93,2.7,2.05,.02,1.5,.1,3.01,.23,4.51-.12-.3-.24-.6-.39-.87-.19-.39-.38-.76-.61-1.11-.92-1.38-2.07-2.09-3.2-2.05,.01,.99,.13,1.97,.37,2.88,.24,.91,.69,1.74,1.19,2.43,.9,1.21,1.97,1.77,3,1.76,.21,1.51,.47,3.02,.8,4.51-.36-.7-.78-1.35-1.28-1.91-1.14-1.25-2.43-1.8-3.58-1.62,.15,.98,.42,1.94,.79,2.81,.39,.87,.82,1.66,1.47,2.27,1.09,1.07,2.25,1.48,3.3,1.34,.39,1.45,.83,2.88,1.32,4.29-.45-.61-.95-1.17-1.52-1.63-.69-.53-1.32-.91-1.96-1.11-.64-.19-1.26-.21-1.84-.04,.12,.48,.26,.96,.43,1.41,.2,.45,.43,.88,.68,1.29,.5,.81,1.1,1.52,1.78,2.06,.66,.55,1.4,.84,2.08,.95,.5,.08,.98,.06,1.43-.06,.55,1.37,1.15,2.71,1.8,4.03-.52-.51-1.1-.97-1.67-1.35-1.43-.92-2.86-1.12-4-.62,.37,.92,.84,1.8,1.43,2.56,.62,.73,1.33,1.35,2.09,1.79,1.33,.77,2.59,.85,3.63,.43,.73,1.3,1.52,2.56,2.35,3.8-.6-.46-1.2-.88-1.87-1.17-1.58-.71-3.07-.7-4.18-.05,.5,.86,1.1,1.66,1.78,2.33,.66,.68,1.46,1.2,2.3,1.52,1.45,.57,2.75,.47,3.76-.09,.89,1.2,1.8,2.37,2.77,3.5-.64-.39-1.31-.71-2.02-.91-.85-.24-1.66-.29-2.37-.21s-1.34,.33-1.86,.73c.54,.84,1.31,1.51,2.06,2.09,.78,.57,1.61,1,2.46,1.24,1.54,.36,2.85,.08,3.8-.62,1.01,1.07,2.06,2.11,3.15,3.11-.69-.29-1.4-.49-2.13-.59-1.72-.29-3.2,.1-4.18,1.05,.68,.72,1.4,1.42,2.28,1.85,.85,.46,1.75,.77,2.65,.88,.9,.11,1.69,.03,2.39-.24,.52-.21,.98-.5,1.36-.86,1.13,.96,2.29,1.87,3.48,2.75-.29-.07-.58-.14-.86-.21-.44-.09-.88-.15-1.32-.16-1.78-.05-3.24,.56-4.12,1.64,.76,.64,1.61,1.17,2.49,1.56,.87,.4,1.83,.56,2.74,.55,1.59-.02,2.82-.63,3.63-1.57,1.18,.79,2.38,1.56,3.61,2.28-.68-.1-1.37-.12-2.06-.05-.9,.1-1.71,.36-2.38,.73-.66,.36-1.21,.85-1.59,1.46,.79,.6,1.74,.97,2.67,1.24,.93,.26,1.88,.35,2.78,.25,.45-.05,.89-.18,1.28-.33,.39-.15,.75-.35,1.07-.57,.45-.32,.82-.7,1.12-1.13,.86,.45,1.73,.89,2.61,1.3,.44,.18,.88,.37,1.32,.56-.25,0-.5,.01-.75,.03-.43,.06-.99,.07-1.4,.17-1.76,.37-3.08,1.34-3.74,2.66,.44,.23,.89,.44,1.35,.61,.23,.08,.46,.16,.7,.22,.26,.06,.53,.13,.8,.2,.39,.1,.58,.09,.81,.1,.23,0,.45,0,.67-.03,.44-.04,.88-.12,1.31-.25,1.47-.44,2.56-1.33,3.2-2.46,1.29,.54,2.58,1.08,3.87,1.62-.68,.01-1.35,.11-2,.31-1.73,.53-2.93,1.66-3.49,3.06,1.67,.74,3.56,.95,5.29,.42,1.47-.45,2.58-1.37,3.24-2.52,1.29,.54,2.58,1.08,3.87,1.63-.68,.01-1.36,.12-2.01,.32-1.74,.55-2.97,1.71-3.55,3.14,1.66,.75,3.56,.95,5.3,.4,1.49-.47,2.61-1.41,3.28-2.59,1.29,.55,2.58,1.1,3.87,1.65-.69,.02-1.37,.12-2.03,.34-1.76,.57-3,1.76-3.6,3.22,1.66,.75,3.56,.95,5.31,.39,1.5-.48,2.64-1.45,3.34-2.66,2.2,.95,4.39,1.9,6.57,2.87-5.9,2.58-11.77,5.25-17.57,8.09-1.27,.63-.39,2.68,1.01,2,6.27-3.11,12.67-6.07,19.14-8.95,6.47,2.88,12.87,5.85,19.14,8.95,1.41,.68,2.28-1.37,1.01-2-5.81-2.84-11.68-5.51-17.57-8.09,2.19-.96,4.38-1.92,6.57-2.87,.69,1.21,1.84,2.17,3.34,2.66,1.75,.56,3.65,.36,5.31-.39-.6-1.47-1.85-2.65-3.6-3.22-.66-.21-1.35-.32-2.03-.34,1.29-.55,2.58-1.1,3.87-1.65,.67,1.18,1.8,2.12,3.28,2.59,1.74,.55,3.64,.35,5.3-.4-.58-1.43-1.81-2.59-3.55-3.14-.65-.21-1.33-.31-2.01-.32,1.29-.54,2.58-1.09,3.87-1.63,.65,1.15,1.76,2.07,3.24,2.52,1.73,.53,3.62,.32,5.29-.42-.56-1.4-1.77-2.53-3.49-3.06-.65-.2-1.32-.3-2-.31,1.29-.54,2.58-1.08,3.87-1.62,.64,1.13,1.73,2.03,3.2,2.46,.43,.13,.87,.21,1.31,.25,.22,.02,.44,.03,.67,.03,.24,0,.43,0,.81-.1,.27-.07,.54-.13,.8-.2,.23-.06,.47-.14,.7-.22,.46-.17,.92-.37,1.35-.61-.65-1.32-1.98-2.29-3.74-2.66-.4-.1-.96-.12-1.39-.17-.25-.02-.5-.03-.75-.03,.44-.19,.88-.37,1.32-.56,.88-.41,1.75-.85,2.61-1.3,.3,.43,.67,.81,1.12,1.13,.32,.22,.68,.42,1.07,.57,.39,.15,.83,.28,1.28,.33,.9,.1,1.85,0,2.78-.25,.92-.27,1.87-.63,2.67-1.24-.39-.6-.93-1.1-1.59-1.46-.67-.36-1.48-.63-2.38-.73-.69-.08-1.38-.06-2.06,.05,1.23-.72,2.43-1.49,3.61-2.28,.81,.94,2.04,1.55,3.63,1.57,.91,0,1.88-.15,2.74-.55,.88-.38,1.73-.92,2.49-1.56-.88-1.09-2.34-1.69-4.12-1.64-.44,.01-.89,.07-1.32,.16-.28,.07-.57,.13-.86,.21,1.19-.88,2.35-1.8,3.48-2.75,.38,.36,.84,.65,1.36,.86,.7,.27,1.49,.35,2.39,.24,.89-.11,1.79-.42,2.65-.88,.88-.43,1.6-1.13,2.28-1.85-.97-.95-2.46-1.34-4.18-1.05-.73,.09-1.45,.3-2.13,.59,1.08-1.01,2.13-2.04,3.15-3.11,.96,.7,2.26,.97,3.8,.62,.85-.24,1.69-.67,2.46-1.24,.76-.58,1.53-1.25,2.06-2.09-.52-.4-1.16-.65-1.86-.73s-1.52-.03-2.37,.21c-.71,.2-1.38,.52-2.02,.91,.97-1.13,1.88-2.31,2.77-3.5,1,.56,2.3,.66,3.76,.09,.84-.32,1.64-.83,2.3-1.52,.68-.67,1.28-1.47,1.78-2.33-1.1-.65-2.6-.66-4.17,.05-.68,.29-1.27,.71-1.87,1.17,.83-1.24,1.61-2.5,2.35-3.8,1.04,.42,2.31,.34,3.63-.43,.76-.44,1.47-1.06,2.09-1.79,.59-.75,1.05-1.63,1.43-2.56-1.14-.5-2.57-.29-4,.62-.57,.38-1.15,.84-1.67,1.35,.65-1.32,1.25-2.66,1.8-4.03,.45,.12,.93,.14,1.43,.06,.67-.11,1.42-.4,2.08-.95,.67-.54,1.27-1.25,1.78-2.06,.25-.41,.48-.84,.68-1.29,.17-.46,.32-.93,.43-1.41-.58-.17-1.21-.16-1.84,.04-.64,.19-1.27,.57-1.96,1.11-.57,.46-1.07,1.02-1.52,1.63,.49-1.41,.93-2.84,1.32-4.29,1.05,.14,2.22-.27,3.3-1.34,.65-.61,1.08-1.4,1.47-2.27,.37-.87,.65-1.83,.79-2.81-1.15-.18-2.44,.37-3.58,1.62-.51,.55-.93,1.21-1.28,1.91,.32-1.49,.58-3,.8-4.51,1.03,0,2.1-.54,3-1.76Z"/>
</svg>