<svg xmlns="http://www.w3.org/2000/svg" width="26.394" height="20.534" viewBox="0 0 26.394 20.534">
  <g id="그룹_100" data-name="그룹 100" transform="translate(0.5 0.5)">
    <path id="패스_322" data-name="패스 322" d="M113.58,104.79H96V98.442A2.449,2.449,0,0,1,98.442,96h14.65a2.449,2.449,0,0,1,2.442,2.442v6.349Z" transform="translate(-93.07 -96)" fill="none" stroke="#d4b297" stroke-linecap="round" stroke-linejoin="round" stroke-width="1"/>
    <path id="패스_323" data-name="패스 323" d="M48,250.744v-6.837A3.918,3.918,0,0,1,51.907,240h17.58a3.918,3.918,0,0,1,3.907,3.907v6.837" transform="translate(-48 -231.21)" fill="none" stroke="#d4b297" stroke-linecap="round" stroke-linejoin="round" stroke-width="1"/>
    <path id="패스_324" data-name="패스 324" d="M48,385.953v-.488A1.469,1.469,0,0,1,49.465,384H71.929a1.469,1.469,0,0,1,1.465,1.465v.488" transform="translate(-48 -366.419)" fill="none" stroke="#d4b297" stroke-linecap="round" stroke-linejoin="round" stroke-width="1"/>
    <path id="패스_325" data-name="패스 325" d="M112,194.93v-.977A1.959,1.959,0,0,1,113.953,192h4.883a1.959,1.959,0,0,1,1.953,1.953v.977" transform="translate(-108.093 -186.14)" fill="none" stroke="#d4b297" stroke-linecap="round" stroke-linejoin="round" stroke-width="1"/>
    <path id="패스_326" data-name="패스 326" d="M256,194.93v-.977A1.959,1.959,0,0,1,257.953,192h4.883a1.959,1.959,0,0,1,1.953,1.953v.977" transform="translate(-243.303 -186.14)" fill="none" stroke="#d4b297" stroke-linecap="round" stroke-linejoin="round" stroke-width="1"/>
  </g>
</svg>
