<svg xmlns="http://www.w3.org/2000/svg" width="22.049" height="23.69" viewBox="0 0 22.049 23.69">
  <g id="본관" transform="translate(-45.263 -36.189)">
    <path id="패스_331" data-name="패스 331" d="M47.455,96H65.186a1.554,1.554,0,0,1,1.659,1.422v18.309a.194.194,0,0,1-.207.178H45.8V97.427A1.554,1.554,0,0,1,47.455,96Z" transform="translate(-0.033 -56.535)" fill="none" stroke="#d4b297" stroke-linecap="round" stroke-linejoin="round" stroke-width="1"/>
    <path id="패스_332" data-name="패스 332" d="M197.209,359.527h0a3.077,3.077,0,0,1,3,3.147v3.736a.061.061,0,0,1-.059.062h-5.941v-3.8A3.076,3.076,0,0,1,197.209,359.527Z" transform="translate(-140.922 -307.094)" fill="none" stroke="#d4b297" stroke-linecap="round" stroke-linejoin="round" stroke-width="1"/>
    <path id="패스_335" data-name="패스 335" d="M87.629,36.379H101.86a1.338,1.338,0,0,1,1.429,1.224v1.4a.167.167,0,0,1-.179.153H86.2V37.6A1.338,1.338,0,0,1,87.629,36.379Z" transform="translate(-38.456 0.31)" fill="none" stroke="#d4b297" stroke-linecap="round" stroke-linejoin="round" stroke-width="1"/>
    <rect id="사각형_385" data-name="사각형 385" width="2.146" height="2.28" transform="translate(48.676 42.462)" fill="none" stroke="#d4b297" stroke-linecap="round" stroke-linejoin="round" stroke-width="1"/>
    <rect id="사각형_386" data-name="사각형 386" width="2.146" height="2.28" transform="translate(55.215 42.462)" fill="none" stroke="#d4b297" stroke-linecap="round" stroke-linejoin="round" stroke-width="1"/>
    <rect id="사각형_387" data-name="사각형 387" width="2.146" height="2.28" transform="translate(61.894 42.462)" fill="none" stroke="#d4b297" stroke-linecap="round" stroke-linejoin="round" stroke-width="1"/>
    <rect id="사각형_388" data-name="사각형 388" width="2.146" height="2.282" transform="translate(48.676 47.283)" fill="none" stroke="#d4b297" stroke-linecap="round" stroke-linejoin="round" stroke-width="1"/>
    <rect id="사각형_389" data-name="사각형 389" width="2.146" height="2.282" transform="translate(55.215 47.283)" fill="none" stroke="#d4b297" stroke-linecap="round" stroke-linejoin="round" stroke-width="1"/>
    <rect id="사각형_390" data-name="사각형 390" width="2.146" height="2.282" transform="translate(61.895 47.283)" fill="none" stroke="#d4b297" stroke-linecap="round" stroke-linejoin="round" stroke-width="1"/>
    <path id="패스_336" data-name="패스 336" d="M196.209,359.527h0a1.965,1.965,0,0,1,2,1.928v2.288a.039.039,0,0,1-.039.038h-3.961v-2.326A1.965,1.965,0,0,1,196.209,359.527Z" transform="translate(-133.287 -304.403)" fill="none" stroke="#d4b297" stroke-linecap="round" stroke-linejoin="round" stroke-width="1"/>
    <path id="패스_337" data-name="패스 337" d="M196.209,359.527h0a1.965,1.965,0,0,1,2,1.928v2.288a.039.039,0,0,1-.039.038h-3.961v-2.326A1.965,1.965,0,0,1,196.209,359.527Z" transform="translate(-146.556 -304.403)" fill="none" stroke="#d4b297" stroke-linecap="round" stroke-linejoin="round" stroke-width="1"/>
  </g>
</svg>
